<svg width="100%" height="100%" overflow="visible" style="display: block;" viewBox="0 0 13.997 13.997" fill="none" xmlns="http://www.w3.org/2000/svg">
<g id="Icon" clip-path="url(#clip0_0_210)">
<path id="Vector" d="M4.66567 1.16642V3.49925" stroke="#777675" stroke-width="1.22474" stroke-linecap="round" stroke-linejoin="round"/>
<path id="Vector_2" d="M9.33133 1.16642V3.49925" stroke="#777675" stroke-width="1.22474" stroke-linecap="round" stroke-linejoin="round"/>
<path id="Vector_3" d="M11.081 2.33283H2.91604C2.27185 2.33283 1.74963 2.85506 1.74963 3.49925V11.6642C1.74963 12.3084 2.27185 12.8306 2.91604 12.8306H11.081C11.7252 12.8306 12.2474 12.3084 12.2474 11.6642V3.49925C12.2474 2.85506 11.7252 2.33283 11.081 2.33283Z" stroke="#777675" stroke-width="1.22474" stroke-linecap="round" stroke-linejoin="round"/>
<path id="Vector_4" d="M1.74963 5.83208H12.2474" stroke="#777675" stroke-width="1.22474" stroke-linecap="round" stroke-linejoin="round"/>
<path id="Vector_5" d="M4.66567 8.16492H4.6715" stroke="#777675" stroke-width="1.22474" stroke-linecap="round" stroke-linejoin="round"/>
<path id="Vector_6" d="M6.9985 8.16492H7.00433" stroke="#777675" stroke-width="1.22474" stroke-linecap="round" stroke-linejoin="round"/>
<path id="Vector_7" d="M9.33133 8.16492H9.33717" stroke="#777675" stroke-width="1.22474" stroke-linecap="round" stroke-linejoin="round"/>
<path id="Vector_8" d="M4.66567 10.4978H4.6715" stroke="#777675" stroke-width="1.22474" stroke-linecap="round" stroke-linejoin="round"/>
<path id="Vector_9" d="M6.9985 10.4978H7.00433" stroke="#777675" stroke-width="1.22474" stroke-linecap="round" stroke-linejoin="round"/>
<path id="Vector_10" d="M9.33133 10.4978H9.33717" stroke="#777675" stroke-width="1.22474" stroke-linecap="round" stroke-linejoin="round"/>
</g>
<defs>
<clipPath id="clip0_0_210">
<rect width="13.997" height="13.997" fill="white"/>
</clipPath>
</defs>
</svg>
